<svg xmlns="http://www.w3.org/2000/svg" version="1.1" xmlns:xlink="http://www.w3.org/1999/xlink" xmlns:svgjs="http://svgjs.dev/svgjs" width="1000" height="1000" viewBox="0 0 1000 1000"><rect width="1000" height="1000" fill="#ffffff"></rect><g transform="matrix(0.7,0,0,0.7,149.57575757575756,282.1265587044535)"><svg viewBox="0 0 396 247" data-background-color="#ffffff" preserveAspectRatio="xMidYMid meet" height="623" width="1000" xmlns="http://www.w3.org/2000/svg" xmlns:xlink="http://www.w3.org/1999/xlink"><g id="tight-bounds" transform="matrix(1,0,0,1,0.2400000000000091,-0.09999999999999432)"><svg viewBox="0 0 395.52 247.2" height="247.2" width="395.52"><g><svg></svg></g><g><svg viewBox="0 0 395.52 247.2" height="247.2" width="395.52"><mask id="60f02816-317e-42ee-ac7c-297b1421b83a"><rect width="640" height="400" fill="white"></rect><g transform="matrix(1,0,0,1,84.10917367791276,37.08)"><svg viewBox="0 0 227.30165264417445 173.04" height="173.04" width="227.30165264417445"><g><svg viewBox="0 0 227.30165264417445 173.04" height="173.04" width="227.30165264417445"><g><svg viewBox="0 0 312.48318667317074 237.88692247905345" height="173.04" width="227.30165264417445"><g><svg viewBox="0 0 312.48318667317074 237.88692247905345" height="237.88692247905345" width="312.48318667317074"><g id="SvgjsG1388"><svg viewBox="0 0 312.48318667317074 237.88692247905345" height="237.88692247905345" width="312.48318667317074" id="SvgjsSvg1387"><g><svg viewBox="0 0 312.48318667317074 171.9706128" height="171.9706128" width="312.48318667317074"><g transform="matrix(1,0,0,1,0,0)"><svg width="312.48318667317074" viewBox="-1.5499999523162842 -41.45000076293945 82.94000244140625 46.10000228881836" height="171.9706128" data-palette-color="#010c80"><path d="M13.2-26.95Q15.3-26.95 17.05-26.25 18.8-25.55 20.4-24.1L20.4-24.1 18.4-21.4Q17.2-22.35 16-22.83 14.8-23.3 13.4-23.3L13.4-23.3Q10.45-23.3 8.83-20.8 7.2-18.3 7.2-13L7.2-13Q7.2-3.1 13.4-3.1L13.4-3.1Q14.8-3.1 15.95-3.58 17.1-4.05 18.4-5L18.4-5 20.5-2.25Q17.3 0.65 13.25 0.65L13.25 0.65Q8.2 0.65 5.33-2.85 2.45-6.35 2.45-12.95L2.45-12.95Q2.45-17.25 3.78-20.4 5.1-23.55 7.53-25.25 9.95-26.95 13.2-26.95L13.2-26.95ZM34.6-26.95Q39.65-26.95 42.45-23.4 45.25-19.85 45.25-13.2L45.25-13.2Q45.25-6.8 42.4-3.08 39.55 0.65 34.55 0.65L34.55 0.65Q29.5 0.65 26.67-3 23.85-6.65 23.85-13.15L23.85-13.15Q23.85-19.7 26.7-23.33 29.55-26.95 34.6-26.95L34.6-26.95ZM34.6-23.35Q31.65-23.35 30.1-20.88 28.55-18.4 28.55-13.15L28.55-13.15Q28.55-2.9 34.55-2.9L34.55-2.9Q40.55-2.9 40.55-13.2L40.55-13.2Q40.55-18.45 39.05-20.9 37.55-23.35 34.6-23.35L34.6-23.35ZM56.7 0.65Q54.3 0.65 52.9-0.8 51.5-2.25 51.5-4.85L51.5-4.85 51.5-36.95 56-37.45 56-5Q56-3.05 57.6-3.05L57.6-3.05Q58.25-3.05 59.05-3.35L59.05-3.35 60.05-0.2Q58.45 0.65 56.7 0.65L56.7 0.65ZM75.74-4.05L77.39-1.15Q74.89 0.65 71.84 0.65L71.84 0.65Q68.64 0.65 66.92-1.2 65.19-3.05 65.19-6.4L65.19-6.4 65.19-22.9 61.44-22.9 61.44-26.3 65.19-26.3 65.19-32.35 69.69-32.9 69.69-26.3 75.49-26.3 74.99-22.9 69.69-22.9 69.69-6.45Q69.69-3.05 72.54-3.05L72.54-3.05Q73.39-3.05 74.12-3.3 74.84-3.55 75.74-4.05L75.74-4.05Z" opacity="1" transform="matrix(1,0,0,1,0,0)" fill="black" class="wordmark-text-0" id="SvgjsPath1386" stroke-width="7" stroke="black" stroke-linejoin="round"></path></svg></g></svg></g><g transform="matrix(1,0,0,1,3.5,206.26748464387813)"><svg viewBox="0 0 305.48318667317074 31.619437835175315" height="31.619437835175315" width="305.48318667317074"><g transform="matrix(1,0,0,1,0,0)"><svg width="305.48318667317074" viewBox="-1.25 -51 535.6900024414062 56.349998474121094" height="31.619437835175315" data-palette-color="#010c80"><path d="M29-15.35Q29.65-15.35 30-14.7 30.35-14.05 30.35-13.05L30.35-13.05Q30.35-11.8 30-11.13 29.65-10.45 28.9-10.2L28.9-10.2Q25.9-9.15 22.3-9L22.3-9Q21.3-4.85 18.53-2.3 15.75 0.25 12.4 0.25L12.4 0.25Q7.35 0.25 5.05-3.6 2.75-7.45 2.75-14.75L2.75-14.75Q2.75-21.2 4.35-28.78 5.95-36.35 9.03-41.68 12.1-47 16.35-47L16.35-47Q18.65-47 20.05-45.03 21.45-43.05 21.45-39.9L21.45-39.9Q21.45-35.8 19.9-31.75 18.35-27.7 14.75-23.25L14.75-23.25Q18.1-23 20.2-20.48 22.3-17.95 22.7-14.25L22.7-14.25Q25.05-14.4 28.3-15.25L28.3-15.25Q28.6-15.35 29-15.35L29-15.35ZM15.2-42.05Q14.2-42.05 13.03-39.08 11.85-36.1 10.85-31 9.85-25.9 9.35-19.85L9.35-19.85Q12.65-25.9 14.63-30.53 16.6-35.15 16.6-38.75L16.6-38.75Q16.6-40.35 16.23-41.2 15.85-42.05 15.2-42.05L15.2-42.05ZM12.6-5.05Q14.15-5.05 15.35-6.35 16.55-7.65 16.95-10.1L16.95-10.1Q15.4-11.15 14.58-12.85 13.75-14.55 13.75-16.45L13.75-16.45Q13.75-17.15 13.95-18.35L13.95-18.35 13.8-18.35Q11.75-18.35 10.38-16.32 9-14.3 9-10.9L9-10.9Q9-8.05 10.08-6.55 11.15-5.05 12.6-5.05L12.6-5.05ZM48.35-11.15Q49-11.15 49.37-10.55 49.75-9.95 49.75-8.9L49.75-8.9Q49.75-6.9 48.8-5.8L48.8-5.8Q46.95-3.55 43.57-1.65 40.2 0.25 36.35 0.25L36.35 0.25Q31.1 0.25 28.2-2.6 25.3-5.45 25.3-10.4L25.3-10.4Q25.3-13.85 26.75-16.82 28.2-19.8 30.77-21.55 33.35-23.3 36.6-23.3L36.6-23.3Q39.5-23.3 41.25-21.58 43-19.85 43-16.9L43-16.9Q43-13.45 40.52-10.98 38.05-8.5 32.15-7.05L32.15-7.05Q33.4-4.75 36.9-4.75L36.9-4.75Q39.15-4.75 42.02-6.33 44.9-7.9 47-10.45L47-10.45Q47.6-11.15 48.35-11.15L48.35-11.15ZM35.75-18.4Q33.9-18.4 32.62-16.25 31.35-14.1 31.35-11.05L31.35-11.05 31.35-10.95Q34.3-11.65 36-13.05 37.7-14.45 37.7-16.3L37.7-16.3Q37.7-17.25 37.17-17.82 36.65-18.4 35.75-18.4L35.75-18.4ZM62.49 0.25Q60.59 0.25 59.82-1.75 59.04-3.75 59.04-8.15L59.04-8.15Q59.04-14.65 60.89-20.5L60.89-20.5Q61.34-21.95 62.37-22.63 63.39-23.3 65.24-23.3L65.24-23.3Q66.24-23.3 66.64-23.05 67.04-22.8 67.04-22.1L67.04-22.1Q67.04-21.3 66.29-18.5L66.29-18.5Q65.79-16.5 65.49-15.03 65.19-13.55 64.99-11.35L64.99-11.35Q66.34-15.25 68.22-17.95 70.09-20.65 72.07-21.98 74.04-23.3 75.79-23.3L75.79-23.3Q77.54-23.3 78.27-22.5 78.99-21.7 78.99-20.05L78.99-20.05Q78.99-18.45 78.04-14.25L78.04-14.25Q77.64-12.45 77.49-11.55L77.49-11.55Q79.99-17.7 83.04-20.5 86.09-23.3 88.74-23.3L88.74-23.3Q91.99-23.3 91.99-20.05L91.99-20.05Q91.99-18.1 90.89-13L90.89-13Q89.94-8.65 89.94-7.25L89.94-7.25Q89.94-5.25 91.39-5.25L91.39-5.25Q92.39-5.25 93.77-6.48 95.14-7.7 97.44-10.45L97.44-10.45Q98.04-11.15 98.79-11.15L98.79-11.15Q99.44-11.15 99.82-10.55 100.19-9.95 100.19-8.9L100.19-8.9Q100.19-6.9 99.24-5.8L99.24-5.8Q97.09-3.15 94.62-1.45 92.14 0.25 88.99 0.25L88.99 0.25Q86.44 0.25 85.14-1.23 83.84-2.7 83.84-5.5L83.84-5.5Q83.84-6.9 84.54-10.5L84.54-10.5Q85.19-13.65 85.19-14.85L85.19-14.85Q85.19-15.65 84.64-15.65L84.64-15.65Q83.99-15.65 82.79-13.98 81.59-12.3 80.39-9.55 79.19-6.8 78.44-3.75L78.44-3.75Q77.89-1.35 77.17-0.55 76.44 0.25 74.84 0.25L74.84 0.25Q73.19 0.25 72.37-1.33 71.54-2.9 71.54-5.15L71.54-5.15Q71.54-7.05 72.04-10.65L72.04-10.65Q72.44-13.85 72.44-14.85L72.44-14.85Q72.44-15.65 71.89-15.65L71.89-15.65Q71.14-15.65 69.99-13.85 68.84-12.05 67.77-9.25 66.69-6.45 66.04-3.75L66.04-3.75Q65.49-1.4 64.77-0.58 64.04 0.25 62.49 0.25L62.49 0.25ZM121.64-15.35Q122.29-15.35 122.64-14.7 122.99-14.05 122.99-13.05L122.99-13.05Q122.99-10.65 121.54-10.2L121.54-10.2Q118.54-9.15 114.94-9L114.94-9Q113.99-4.8 111.19-2.27 108.39 0.25 104.84 0.25L104.84 0.25Q101.84 0.25 99.72-1.2 97.59-2.65 96.49-5.05 95.39-7.45 95.39-10.25L95.39-10.25Q95.39-14.05 96.84-17.03 98.29-20 100.84-21.68 103.39-23.35 106.49-23.35L106.49-23.35Q110.29-23.35 112.62-20.73 114.94-18.1 115.34-14.25L115.34-14.25Q117.69-14.4 120.94-15.25L120.94-15.25Q121.34-15.35 121.64-15.35L121.64-15.35ZM105.24-5.05Q106.84-5.05 108.02-6.35 109.19-7.65 109.59-10.1L109.59-10.1Q108.04-11.15 107.22-12.85 106.39-14.55 106.39-16.45L106.39-16.45Q106.39-17.25 106.54-18.05L106.54-18.05 106.29-18.05Q104.29-18.05 102.97-16.13 101.64-14.2 101.64-10.7L101.64-10.7Q101.64-7.95 102.72-6.5 103.79-5.05 105.24-5.05L105.24-5.05ZM122.24 0.25Q120.34 0.25 119.56-1.75 118.79-3.75 118.79-8.15L118.79-8.15Q118.79-14.65 120.64-20.5L120.64-20.5Q121.09-21.95 122.11-22.63 123.14-23.3 124.99-23.3L124.99-23.3Q125.99-23.3 126.39-23.05 126.79-22.8 126.79-22.1L126.79-22.1Q126.79-21.3 126.04-18.5L126.04-18.5Q125.54-16.5 125.24-15 124.94-13.5 124.74-11.3L124.74-11.3Q126.39-15.6 128.44-18.3 130.49-21 132.46-22.15 134.44-23.3 136.09-23.3L136.09-23.3Q139.34-23.3 139.34-20.05L139.34-20.05Q139.34-19.4 138.89-16.9L138.89-16.9Q138.49-14.9 138.49-14.4L138.49-14.4Q138.49-12.65 139.74-12.65L139.74-12.65Q141.14-12.65 143.34-14.85L143.34-14.85Q143.99-15.5 144.69-15.5L144.69-15.5Q145.34-15.5 145.71-14.93 146.09-14.35 146.09-13.4L146.09-13.4Q146.09-11.55 145.09-10.5L145.09-10.5Q143.69-9.05 141.81-8.03 139.94-7 137.84-7L137.84-7Q135.19-7 133.81-8.35 132.44-9.7 132.44-12L132.44-12Q132.44-12.75 132.59-13.5L132.59-13.5Q132.69-14.5 132.69-14.85L132.69-14.85Q132.69-15.65 132.14-15.65L132.14-15.65Q131.39-15.65 130.16-13.98 128.94-12.3 127.74-9.55 126.54-6.8 125.79-3.75L125.79-3.75Q125.24-1.4 124.51-0.58 123.79 0.25 122.24 0.25L122.24 0.25ZM163.74-11.15Q164.39-11.15 164.76-10.55 165.14-9.95 165.14-8.9L165.14-8.9Q165.14-6.9 164.19-5.8L164.19-5.8Q162.34-3.55 158.96-1.65 155.59 0.25 151.74 0.25L151.74 0.25Q146.49 0.25 143.59-2.6 140.69-5.45 140.69-10.4L140.69-10.4Q140.69-13.85 142.14-16.82 143.59-19.8 146.16-21.55 148.74-23.3 151.99-23.3L151.99-23.3Q154.89-23.3 156.64-21.58 158.39-19.85 158.39-16.9L158.39-16.9Q158.39-13.45 155.91-10.98 153.44-8.5 147.54-7.05L147.54-7.05Q148.79-4.75 152.29-4.75L152.29-4.75Q154.54-4.75 157.41-6.33 160.29-7.9 162.39-10.45L162.39-10.45Q162.99-11.15 163.74-11.15L163.74-11.15ZM151.14-18.4Q149.29-18.4 148.01-16.25 146.74-14.1 146.74-11.05L146.74-11.05 146.74-10.95Q149.69-11.65 151.39-13.05 153.09-14.45 153.09-16.3L153.09-16.3Q153.09-17.25 152.56-17.82 152.04-18.4 151.14-18.4L151.14-18.4ZM183.63 1.35Q181.03 1.35 179.66 0.15 178.28-1.05 178.28-2.55L178.28-2.55Q178.28-3.85 179.23-4.8 180.18-5.75 182.03-5.75L182.03-5.75Q182.68-5.75 183.56-5.63 184.43-5.5 184.88-5.45L184.88-5.45Q184.83-6.75 184.31-7.9 183.78-9.05 182.98-10.13 182.18-11.2 181.48-12L181.48-12Q179.93-9.05 178.41-7.1 176.88-5.15 175.08-3.4L175.08-3.4Q174.18-2.5 173.18-2.5L173.18-2.5Q172.38-2.5 171.88-3.08 171.38-3.65 171.38-4.5L171.38-4.5Q171.38-5.5 172.08-6.35L172.08-6.35 172.73-7.15Q175.48-10.55 176.88-12.75L176.88-12.75Q177.73-14.2 178.88-16.63 180.03-19.05 181.13-21.65L181.13-21.65Q182.08-23.85 185.08-23.85L185.08-23.85Q186.48-23.85 187.03-23.6 187.58-23.35 187.58-22.8L187.58-22.8Q187.58-22.5 187.38-21.85 187.18-21.2 186.83-20.55L186.83-20.55Q185.93-18.75 185.93-17.5L185.93-17.5Q185.93-16.75 186.46-15.85 186.98-14.95 188.08-13.6L188.08-13.6Q189.68-11.5 190.51-10.03 191.33-8.55 191.33-6.8L191.33-6.8Q191.33-6.3 191.23-5.4L191.23-5.4Q193.68-6.35 196.98-10.45L196.98-10.45Q197.58-11.15 198.33-11.15L198.33-11.15Q198.98-11.15 199.36-10.55 199.73-9.95 199.73-8.9L199.73-8.9Q199.73-7 198.78-5.8L198.78-5.8Q196.28-2.7 194.01-1.58 191.73-0.45 188.38-0.35L188.38-0.35Q186.38 1.35 183.63 1.35L183.63 1.35ZM221.18-15.35Q221.83-15.35 222.18-14.7 222.53-14.05 222.53-13.05L222.53-13.05Q222.53-10.65 221.08-10.2L221.08-10.2Q218.08-9.15 214.48-9L214.48-9Q213.53-4.8 210.73-2.27 207.93 0.25 204.38 0.25L204.38 0.25Q201.38 0.25 199.25-1.2 197.13-2.65 196.03-5.05 194.93-7.45 194.93-10.25L194.93-10.25Q194.93-14.05 196.38-17.03 197.83-20 200.38-21.68 202.93-23.35 206.03-23.35L206.03-23.35Q209.83-23.35 212.15-20.73 214.48-18.1 214.88-14.25L214.88-14.25Q217.23-14.4 220.48-15.25L220.48-15.25Q220.88-15.35 221.18-15.35L221.18-15.35ZM204.78-5.05Q206.38-5.05 207.55-6.35 208.73-7.65 209.13-10.1L209.13-10.1Q207.58-11.15 206.75-12.85 205.93-14.55 205.93-16.45L205.93-16.45Q205.93-17.25 206.08-18.05L206.08-18.05 205.83-18.05Q203.83-18.05 202.5-16.13 201.18-14.2 201.18-10.7L201.18-10.7Q201.18-7.95 202.25-6.5 203.33-5.05 204.78-5.05L204.78-5.05ZM227.78 0.25Q222.88 0.25 220.15-2.53 217.43-5.3 217.43-9.85L217.43-9.85Q217.43-13.9 219.03-16.95 220.63-20 223.18-21.65 225.73-23.3 228.53-23.3L228.53-23.3Q231.28-23.3 232.8-21.68 234.33-20.05 234.33-17.5L234.33-17.5Q234.33-15.4 233.4-13.95 232.48-12.5 230.98-12.5L230.98-12.5Q230.03-12.5 229.45-12.95 228.88-13.4 228.88-14.2L228.88-14.2Q228.88-14.55 228.98-15 229.08-15.45 229.13-15.65L229.13-15.65Q229.38-16.4 229.38-17.05L229.38-17.05Q229.38-17.7 229.05-18.05 228.73-18.4 228.13-18.4L228.13-18.4Q226.98-18.4 225.98-17.38 224.98-16.35 224.38-14.6 223.78-12.85 223.78-10.75L223.78-10.75Q223.78-4.95 228.83-4.95L228.83-4.95Q230.88-4.95 233.25-6.33 235.63-7.7 237.93-10.45L237.93-10.45Q238.53-11.15 239.28-11.15L239.28-11.15Q239.93-11.15 240.3-10.55 240.68-9.95 240.68-8.9L240.68-8.9Q240.68-7 239.73-5.8L239.73-5.8Q237.38-2.9 234.1-1.33 230.83 0.25 227.78 0.25L227.78 0.25ZM243.17-26.6Q241.07-26.6 240.02-27.58 238.97-28.55 238.97-30.3L238.97-30.3Q238.97-32.05 240.35-33.23 241.72-34.4 243.77-34.4L243.77-34.4Q245.62-34.4 246.77-33.5 247.92-32.6 247.92-30.95L247.92-30.95Q247.92-28.95 246.62-27.78 245.32-26.6 243.17-26.6L243.17-26.6ZM242.77 0.25Q239.52 0.25 238.05-2.05 236.57-4.35 236.57-8.15L236.57-8.15Q236.57-10.4 237.15-13.93 237.72-17.45 238.62-20.5L238.62-20.5Q239.07-22.1 239.82-22.7 240.57-23.3 242.22-23.3L242.22-23.3Q244.77-23.3 244.77-21.6L244.77-21.6Q244.77-20.35 243.82-15.8L243.82-15.8Q242.62-10.3 242.62-8.35L242.62-8.35Q242.62-6.85 243.02-6.05 243.42-5.25 244.37-5.25L244.37-5.25Q245.27-5.25 246.62-6.5 247.97-7.75 250.22-10.45L250.22-10.45Q250.82-11.15 251.57-11.15L251.57-11.15Q252.22-11.15 252.6-10.55 252.97-9.95 252.97-8.9L252.97-8.9Q252.97-6.9 252.02-5.8L252.02-5.8Q247.07 0.25 242.77 0.25L242.77 0.25ZM255.07 0.25Q251.97 0.25 250.12-2 248.27-4.25 248.27-7.9L248.27-7.9Q248.27-11.9 250.12-15.48 251.97-19.05 255.05-21.23 258.12-23.4 261.57-23.4L261.57-23.4Q262.67-23.4 263.05-22.98 263.42-22.55 263.67-21.45L263.67-21.45Q264.72-21.65 265.87-21.65L265.87-21.65Q268.32-21.65 268.32-19.9L268.32-19.9Q268.32-18.85 267.57-14.9L267.57-14.9Q266.42-9.15 266.42-6.9L266.42-6.9Q266.42-6.15 266.8-5.7 267.17-5.25 267.77-5.25L267.77-5.25Q268.72-5.25 270.07-6.48 271.42-7.7 273.72-10.45L273.72-10.45Q274.32-11.15 275.07-11.15L275.07-11.15Q275.72-11.15 276.1-10.55 276.47-9.95 276.47-8.9L276.47-8.9Q276.47-6.9 275.52-5.8L275.52-5.8Q273.47-3.25 271.17-1.5 268.87 0.25 266.72 0.25L266.72 0.25Q265.07 0.25 263.7-0.88 262.32-2 261.62-3.95L261.62-3.95Q259.02 0.25 255.07 0.25L255.07 0.25ZM256.87-4.8Q257.97-4.8 258.97-6.1 259.97-7.4 260.42-9.55L260.42-9.55 262.27-18.75Q260.17-18.7 258.4-17.18 256.62-15.65 255.57-13.15 254.52-10.65 254.52-7.85L254.52-7.85Q254.52-6.3 255.15-5.55 255.77-4.8 256.87-4.8L256.87-4.8ZM291.37-11.15Q292.02-11.15 292.39-10.55 292.77-9.95 292.77-8.9L292.77-8.9Q292.77-6.9 291.82-5.8L291.82-5.8Q289.67-3.15 287.14-1.45 284.62 0.25 281.42 0.25L281.42 0.25Q277.02 0.25 274.89-3.75 272.77-7.75 272.77-14.1L272.77-14.1Q272.77-20.2 274.34-28 275.92-35.8 278.99-41.4 282.07-47 286.32-47L286.32-47Q288.72-47 290.09-44.78 291.47-42.55 291.47-38.4L291.47-38.4Q291.47-32.45 288.17-24.6 284.87-16.75 279.22-9.05L279.22-9.05Q279.57-7 280.37-6.13 281.17-5.25 282.47-5.25L282.47-5.25Q284.52-5.25 286.07-6.43 287.62-7.6 290.02-10.45L290.02-10.45Q290.62-11.15 291.37-11.15L291.37-11.15ZM285.22-42.05Q284.07-42.05 282.62-37.9 281.17-33.75 280.07-27.6 278.97-21.45 278.87-15.8L278.87-15.8Q282.42-21.65 284.52-27.53 286.62-33.4 286.62-38.25L286.62-38.25Q286.62-42.05 285.22-42.05L285.22-42.05ZM324.26-11.15Q324.91-11.15 325.29-10.55 325.66-9.95 325.66-8.9L325.66-8.9Q325.66-6.9 324.71-5.8L324.71-5.8Q322.56-3.15 320.01-1.45 317.46 0.25 314.16 0.25L314.16 0.25Q303.96 0.25 303.96-14.1L303.96-14.1Q303.96-16.3 304.11-18.55L304.11-18.55 302.16-18.55Q300.66-18.55 300.14-19.1 299.61-19.65 299.61-20.85L299.61-20.85Q299.61-23.65 301.86-23.65L301.86-23.65 304.71-23.65Q305.56-29.15 307.31-33.7 309.06-38.25 311.54-40.95 314.01-43.65 316.86-43.65L316.86-43.65Q318.96-43.65 320.16-41.8 321.36-39.95 321.36-37.15L321.36-37.15Q321.36-29.4 314.86-23.65L314.86-23.65 320.46-23.65Q321.26-23.65 321.61-23.3 321.96-22.95 321.96-22L321.96-22Q321.96-18.55 316.31-18.55L316.31-18.55 310.21-18.55Q310.11-16.05 310.11-14.65L310.11-14.65Q310.11-9.45 311.34-7.35 312.56-5.25 315.21-5.25L315.21-5.25Q317.36-5.25 319.01-6.55 320.66-7.85 322.91-10.45L322.91-10.45Q323.51-11.15 324.26-11.15L324.26-11.15ZM315.51-38.85Q314.76-38.85 313.84-36.98 312.91-35.1 312.09-31.78 311.26-28.45 310.71-24.4L310.71-24.4Q313.66-26.95 315.14-30.13 316.61-33.3 316.61-35.9L316.61-35.9Q316.61-38.85 315.51-38.85L315.51-38.85ZM349.36-11.15Q350.01-11.15 350.39-10.55 350.76-9.95 350.76-8.9L350.76-8.9Q350.76-6.9 349.81-5.8L349.81-5.8Q347.51-3.15 345.09-1.45 342.66 0.25 339.56 0.25L339.56 0.25Q337.01 0.25 335.71-1.23 334.41-2.7 334.41-5.5L334.41-5.5Q334.41-6.9 335.11-10.5L335.11-10.5Q335.76-13.65 335.76-14.85L335.76-14.85Q335.76-15.65 335.21-15.65L335.21-15.65Q334.56-15.65 333.36-13.98 332.16-12.3 330.96-9.55 329.76-6.8 329.01-3.75L329.01-3.75Q328.06 0.25 324.31 0.25L324.31 0.25Q322.81 0.25 322.34-0.83 321.86-1.9 321.86-4.7L321.86-4.7Q321.86-6.3 321.91-7.25L321.91-7.25 321.96-11.25Q321.96-18.95 323.54-27.3 325.11-35.65 328.19-41.33 331.26-47 335.56-47L335.56-47Q337.86-47 339.29-45.03 340.71-43.05 340.71-39.9L340.71-39.9Q340.71-34.85 337.76-29.43 334.81-24 328.16-16.75L328.16-16.75Q328.01-14.15 328.01-11.4L328.01-11.4Q329.66-15.65 331.69-18.32 333.71-21 335.69-22.15 337.66-23.3 339.31-23.3L339.31-23.3Q342.56-23.3 342.56-20.05L342.56-20.05Q342.56-18.1 341.46-13L341.46-13Q340.51-8.65 340.51-7.25L340.51-7.25Q340.51-5.25 341.96-5.25L341.96-5.25Q342.96-5.25 344.34-6.48 345.71-7.7 348.01-10.45L348.01-10.45Q348.61-11.15 349.36-11.15L349.36-11.15ZM334.51-42.05Q333.61-42.05 332.51-39.48 331.41-36.9 330.39-32.52 329.36-28.15 328.71-23L328.71-23Q331.81-26.65 333.84-30.95 335.86-35.25 335.86-38.75L335.86-38.75Q335.86-40.35 335.51-41.2 335.16-42.05 334.51-42.05L334.51-42.05ZM352.86 0.25Q349.76 0.25 347.91-2 346.06-4.25 346.06-7.9L346.06-7.9Q346.06-11.9 347.91-15.48 349.76-19.05 352.83-21.23 355.91-23.4 359.36-23.4L359.36-23.4Q360.46-23.4 360.83-22.98 361.21-22.55 361.46-21.45L361.46-21.45Q362.51-21.65 363.66-21.65L363.66-21.65Q366.11-21.65 366.11-19.9L366.11-19.9Q366.11-18.85 365.36-14.9L365.36-14.9Q364.21-9.15 364.21-6.9L364.21-6.9Q364.21-6.15 364.58-5.7 364.96-5.25 365.56-5.25L365.56-5.25Q366.51-5.25 367.86-6.48 369.21-7.7 371.51-10.45L371.51-10.45Q372.11-11.15 372.86-11.15L372.86-11.15Q373.51-11.15 373.88-10.55 374.26-9.95 374.26-8.9L374.26-8.9Q374.26-6.9 373.31-5.8L373.31-5.8Q371.26-3.25 368.96-1.5 366.66 0.25 364.51 0.25L364.51 0.25Q362.86 0.25 361.48-0.88 360.11-2 359.41-3.95L359.41-3.95Q356.81 0.25 352.86 0.25L352.86 0.25ZM354.66-4.8Q355.76-4.8 356.76-6.1 357.76-7.4 358.21-9.55L358.21-9.55 360.06-18.75Q357.96-18.7 356.18-17.18 354.41-15.65 353.36-13.15 352.31-10.65 352.31-7.85L352.31-7.85Q352.31-6.3 352.93-5.55 353.56-4.8 354.66-4.8L354.66-4.8ZM373.76 0.25Q371.86 0.25 371.08-1.75 370.31-3.75 370.31-8.15L370.31-8.15Q370.31-14.65 372.16-20.5L372.16-20.5Q372.61-21.95 373.63-22.63 374.66-23.3 376.51-23.3L376.51-23.3Q377.51-23.3 377.91-23.05 378.31-22.8 378.31-22.1L378.31-22.1Q378.31-21.3 377.56-18.5L377.56-18.5Q377.06-16.5 376.76-15 376.46-13.5 376.26-11.3L376.26-11.3Q377.91-15.6 379.96-18.3 382.01-21 383.98-22.15 385.96-23.3 387.61-23.3L387.61-23.3Q390.86-23.3 390.86-20.05L390.86-20.05Q390.86-18.1 389.76-13L389.76-13Q388.81-8.65 388.81-7.25L388.81-7.25Q388.81-5.25 390.26-5.25L390.26-5.25Q391.26-5.25 392.63-6.48 394.01-7.7 396.31-10.45L396.31-10.45Q396.91-11.15 397.66-11.15L397.66-11.15Q398.31-11.15 398.68-10.55 399.06-9.95 399.06-8.9L399.06-8.9Q399.06-6.9 398.11-5.8L398.11-5.8Q395.96-3.15 393.48-1.45 391.01 0.25 387.86 0.25L387.86 0.25Q385.31 0.25 384.01-1.23 382.71-2.7 382.71-5.5L382.71-5.5Q382.71-6.9 383.41-10.5L383.41-10.5Q384.06-13.65 384.06-14.85L384.06-14.85Q384.06-15.65 383.51-15.65L383.51-15.65Q382.86-15.65 381.68-13.98 380.51-12.3 379.28-9.55 378.06-6.8 377.31-3.75L377.31-3.75Q376.76-1.4 376.03-0.58 375.31 0.25 373.76 0.25L373.76 0.25ZM411.8 0.25Q409.9 0.25 409.13-1.75 408.35-3.75 408.35-8.15L408.35-8.15Q408.35-14.65 410.2-20.5L410.2-20.5Q410.65-21.95 411.68-22.63 412.7-23.3 414.55-23.3L414.55-23.3Q415.55-23.3 415.95-23.05 416.35-22.8 416.35-22.1L416.35-22.1Q416.35-21.3 415.6-18.5L415.6-18.5Q415.1-16.5 414.8-15.03 414.5-13.55 414.3-11.35L414.3-11.35Q415.65-15.25 417.53-17.95 419.4-20.65 421.38-21.98 423.35-23.3 425.1-23.3L425.1-23.3Q426.85-23.3 427.58-22.5 428.3-21.7 428.3-20.05L428.3-20.05Q428.3-18.45 427.35-14.25L427.35-14.25Q426.95-12.45 426.8-11.55L426.8-11.55Q429.3-17.7 432.35-20.5 435.4-23.3 438.05-23.3L438.05-23.3Q441.3-23.3 441.3-20.05L441.3-20.05Q441.3-18.1 440.2-13L440.2-13Q439.25-8.65 439.25-7.25L439.25-7.25Q439.25-5.25 440.7-5.25L440.7-5.25Q441.7-5.25 443.08-6.48 444.45-7.7 446.75-10.45L446.75-10.45Q447.35-11.15 448.1-11.15L448.1-11.15Q448.75-11.15 449.13-10.55 449.5-9.95 449.5-8.9L449.5-8.9Q449.5-6.9 448.55-5.8L448.55-5.8Q446.4-3.15 443.93-1.45 441.45 0.25 438.3 0.25L438.3 0.25Q435.75 0.25 434.45-1.23 433.15-2.7 433.15-5.5L433.15-5.5Q433.15-6.9 433.85-10.5L433.85-10.5Q434.5-13.65 434.5-14.85L434.5-14.85Q434.5-15.65 433.95-15.65L433.95-15.65Q433.3-15.65 432.1-13.98 430.9-12.3 429.7-9.55 428.5-6.8 427.75-3.75L427.75-3.75Q427.2-1.35 426.48-0.55 425.75 0.25 424.15 0.25L424.15 0.25Q422.5 0.25 421.68-1.33 420.85-2.9 420.85-5.15L420.85-5.15Q420.85-7.05 421.35-10.65L421.35-10.65Q421.75-13.85 421.75-14.85L421.75-14.85Q421.75-15.65 421.2-15.65L421.2-15.65Q420.45-15.65 419.3-13.85 418.15-12.05 417.08-9.25 416-6.45 415.35-3.75L415.35-3.75Q414.8-1.4 414.08-0.58 413.35 0.25 411.8 0.25L411.8 0.25ZM467.75-11.15Q468.4-11.15 468.77-10.55 469.15-9.95 469.15-8.9L469.15-8.9Q469.15-6.9 468.2-5.8L468.2-5.8Q466.35-3.55 462.97-1.65 459.6 0.25 455.75 0.25L455.75 0.25Q450.5 0.25 447.6-2.6 444.7-5.45 444.7-10.4L444.7-10.4Q444.7-13.85 446.15-16.82 447.6-19.8 450.17-21.55 452.75-23.3 456-23.3L456-23.3Q458.9-23.3 460.65-21.58 462.4-19.85 462.4-16.9L462.4-16.9Q462.4-13.45 459.92-10.98 457.45-8.5 451.55-7.05L451.55-7.05Q452.8-4.75 456.3-4.75L456.3-4.75Q458.55-4.75 461.42-6.33 464.3-7.9 466.4-10.45L466.4-10.45Q467-11.15 467.75-11.15L467.75-11.15ZM455.15-18.4Q453.3-18.4 452.02-16.25 450.75-14.1 450.75-11.05L450.75-11.05 450.75-10.95Q453.7-11.65 455.4-13.05 457.1-14.45 457.1-16.3L457.1-16.3Q457.1-17.25 456.57-17.82 456.05-18.4 455.15-18.4L455.15-18.4ZM493.25-11.15Q493.9-11.15 494.27-10.55 494.65-9.95 494.65-8.9L494.65-8.9Q494.65-6.9 493.7-5.8L493.7-5.8Q491.65-3.3 489.2-1.53 486.75 0.25 484.35 0.25L484.35 0.25Q480.55 0.25 478.55-4.2L478.55-4.2Q476.45-1.55 474.87-0.65 473.3 0.25 471.2 0.25L471.2 0.25Q468.15 0.25 466.17-2.02 464.2-4.3 464.2-7.95L464.2-7.95Q464.2-11.95 465.9-15.38 467.6-18.8 470.57-20.98 473.55-23.15 477.25-23.55L477.25-23.55Q478.2-33.25 480.87-40.13 483.55-47 487.9-47L487.9-47Q490.05-47 491.47-45.05 492.9-43.1 492.9-39.15L492.9-39.15Q492.9-33.55 490.15-26.05 487.4-18.55 482.8-10.65L482.8-10.65Q483-7.75 483.67-6.5 484.35-5.25 485.4-5.25L485.4-5.25Q486.75-5.25 488.15-6.45 489.55-7.65 491.9-10.45L491.9-10.45Q492.5-11.15 493.25-11.15L493.25-11.15ZM487.35-42.1Q486.4-42.1 485.45-38.73 484.5-35.35 483.82-29.9 483.15-24.45 482.85-18.5L482.85-18.5Q488.45-30.7 488.45-38.1L488.45-38.1Q488.45-40 488.12-41.05 487.8-42.1 487.35-42.1L487.35-42.1ZM472.95-4.8Q473.9-4.8 474.85-5.58 475.8-6.35 477.25-8.45L477.25-8.45Q476.75-11.15 476.75-14.5L476.75-14.5Q476.75-15.7 476.85-18.4L476.85-18.4Q474.1-17.55 472.27-14.73 470.45-11.9 470.45-8.45L470.45-8.45Q470.45-4.8 472.95-4.8L472.95-4.8ZM497.14-26.6Q495.04-26.6 493.99-27.58 492.94-28.55 492.94-30.3L492.94-30.3Q492.94-32.05 494.32-33.23 495.69-34.4 497.74-34.4L497.74-34.4Q499.59-34.4 500.74-33.5 501.89-32.6 501.89-30.95L501.89-30.95Q501.89-28.95 500.59-27.78 499.29-26.6 497.14-26.6L497.14-26.6ZM496.74 0.25Q493.49 0.25 492.02-2.05 490.54-4.35 490.54-8.15L490.54-8.15Q490.54-10.4 491.12-13.93 491.69-17.45 492.59-20.5L492.59-20.5Q493.04-22.1 493.79-22.7 494.54-23.3 496.19-23.3L496.19-23.3Q498.74-23.3 498.74-21.6L498.74-21.6Q498.74-20.35 497.79-15.8L497.79-15.8Q496.59-10.3 496.59-8.35L496.59-8.35Q496.59-6.85 496.99-6.05 497.39-5.25 498.34-5.25L498.34-5.25Q499.24-5.25 500.59-6.5 501.94-7.75 504.19-10.45L504.19-10.45Q504.79-11.15 505.54-11.15L505.54-11.15Q506.19-11.15 506.57-10.55 506.94-9.95 506.94-8.9L506.94-8.9Q506.94-6.9 505.99-5.8L505.99-5.8Q501.04 0.25 496.74 0.25L496.74 0.25ZM509.04 0.25Q505.94 0.25 504.09-2 502.24-4.25 502.24-7.9L502.24-7.9Q502.24-11.9 504.09-15.48 505.94-19.05 509.02-21.23 512.09-23.4 515.54-23.4L515.54-23.4Q516.64-23.4 517.02-22.98 517.39-22.55 517.64-21.45L517.64-21.45Q518.69-21.65 519.84-21.65L519.84-21.65Q522.29-21.65 522.29-19.9L522.29-19.9Q522.29-18.85 521.54-14.9L521.54-14.9Q520.39-9.15 520.39-6.9L520.39-6.9Q520.39-6.15 520.77-5.7 521.14-5.25 521.74-5.25L521.74-5.25Q522.69-5.25 524.04-6.48 525.39-7.7 527.69-10.45L527.69-10.45Q528.29-11.15 529.04-11.15L529.04-11.15Q529.69-11.15 530.07-10.55 530.44-9.95 530.44-8.9L530.44-8.9Q530.44-6.9 529.49-5.8L529.49-5.8Q527.44-3.25 525.14-1.5 522.84 0.25 520.69 0.25L520.69 0.25Q519.04 0.25 517.67-0.88 516.29-2 515.59-3.95L515.59-3.95Q512.99 0.25 509.04 0.25L509.04 0.25ZM510.84-4.8Q511.94-4.8 512.94-6.1 513.94-7.4 514.39-9.55L514.39-9.55 516.24-18.75Q514.14-18.7 512.37-17.18 510.59-15.65 509.54-13.15 508.49-10.65 508.49-7.85L508.49-7.85Q508.49-6.3 509.12-5.55 509.74-4.8 510.84-4.8L510.84-4.8Z" opacity="1" transform="matrix(1,0,0,1,0,0)" fill="black" class="slogan-text-1" id="SvgjsPath1385" stroke-width="7" stroke="black" stroke-linejoin="round"></path></svg></g></svg></g></svg></g></svg></g><g></g></svg></g></svg></g></svg></g></mask><g transform="matrix(1,0,0,1,84.10917367791276,37.08)"><svg viewBox="0 0 227.30165264417445 173.04" height="173.04" width="227.30165264417445"><g><svg viewBox="0 0 227.30165264417445 173.04" height="173.04" width="227.30165264417445"><g><svg viewBox="0 0 312.48318667317074 237.88692247905345" height="173.04" width="227.30165264417445"><g><svg viewBox="0 0 312.48318667317074 237.88692247905345" height="237.88692247905345" width="312.48318667317074"><g id="textblocktransform"><svg viewBox="0 0 312.48318667317074 237.88692247905345" height="237.88692247905345" width="312.48318667317074" id="textblock"><g><svg viewBox="0 0 312.48318667317074 171.9706128" height="171.9706128" width="312.48318667317074"><g transform="matrix(1,0,0,1,0,0)"><svg width="312.48318667317074" viewBox="-1.5499999523162842 -41.45000076293945 82.94000244140625 46.10000228881836" height="171.9706128" data-palette-color="#010c80"><path d="M13.2-26.95Q15.3-26.95 17.05-26.25 18.8-25.55 20.4-24.1L20.4-24.1 18.4-21.4Q17.2-22.35 16-22.83 14.8-23.3 13.4-23.3L13.4-23.3Q10.45-23.3 8.83-20.8 7.2-18.3 7.2-13L7.2-13Q7.2-3.1 13.4-3.1L13.4-3.1Q14.8-3.1 15.95-3.58 17.1-4.05 18.4-5L18.4-5 20.5-2.25Q17.3 0.65 13.25 0.65L13.25 0.65Q8.2 0.65 5.33-2.85 2.45-6.35 2.45-12.95L2.45-12.95Q2.45-17.25 3.78-20.4 5.1-23.55 7.53-25.25 9.95-26.95 13.2-26.95L13.2-26.95ZM34.6-26.95Q39.65-26.95 42.45-23.4 45.25-19.85 45.25-13.2L45.25-13.2Q45.25-6.8 42.4-3.08 39.55 0.65 34.55 0.65L34.55 0.65Q29.5 0.65 26.67-3 23.85-6.65 23.85-13.15L23.85-13.15Q23.85-19.7 26.7-23.33 29.55-26.95 34.6-26.95L34.6-26.95ZM34.6-23.35Q31.65-23.35 30.1-20.88 28.55-18.4 28.55-13.15L28.55-13.15Q28.55-2.9 34.55-2.9L34.55-2.9Q40.55-2.9 40.55-13.2L40.55-13.2Q40.55-18.45 39.05-20.9 37.55-23.35 34.6-23.35L34.6-23.35ZM56.7 0.65Q54.3 0.65 52.9-0.8 51.5-2.25 51.5-4.85L51.5-4.85 51.5-36.95 56-37.45 56-5Q56-3.05 57.6-3.05L57.6-3.05Q58.25-3.05 59.05-3.35L59.05-3.35 60.05-0.2Q58.45 0.65 56.7 0.65L56.7 0.65ZM75.74-4.05L77.39-1.15Q74.89 0.65 71.84 0.65L71.84 0.65Q68.64 0.65 66.92-1.2 65.19-3.05 65.19-6.4L65.19-6.4 65.19-22.9 61.44-22.9 61.44-26.3 65.19-26.3 65.19-32.35 69.69-32.9 69.69-26.3 75.49-26.3 74.99-22.9 69.69-22.9 69.69-6.45Q69.69-3.05 72.54-3.05L72.54-3.05Q73.39-3.05 74.12-3.3 74.84-3.55 75.74-4.05L75.74-4.05Z" opacity="1" transform="matrix(1,0,0,1,0,0)" fill="#010c80" class="wordmark-text-0" data-fill-palette-color="primary" id="text-0"></path></svg></g></svg></g><g transform="matrix(1,0,0,1,3.5,206.26748464387813)"><svg viewBox="0 0 305.48318667317074 31.619437835175315" height="31.619437835175315" width="305.48318667317074"><g transform="matrix(1,0,0,1,0,0)"><svg width="305.48318667317074" viewBox="-1.25 -51 535.6900024414062 56.349998474121094" height="31.619437835175315" data-palette-color="#010c80"><path d="M29-15.35Q29.65-15.35 30-14.7 30.35-14.05 30.35-13.05L30.35-13.05Q30.35-11.8 30-11.13 29.65-10.45 28.9-10.2L28.9-10.2Q25.9-9.15 22.3-9L22.3-9Q21.3-4.85 18.53-2.3 15.75 0.25 12.4 0.25L12.4 0.25Q7.35 0.25 5.05-3.6 2.75-7.45 2.75-14.75L2.75-14.75Q2.75-21.2 4.35-28.78 5.95-36.35 9.03-41.68 12.1-47 16.35-47L16.35-47Q18.65-47 20.05-45.03 21.45-43.05 21.45-39.9L21.45-39.9Q21.45-35.8 19.9-31.75 18.35-27.7 14.75-23.25L14.75-23.25Q18.1-23 20.2-20.48 22.3-17.95 22.7-14.25L22.7-14.25Q25.05-14.4 28.3-15.25L28.3-15.25Q28.6-15.35 29-15.35L29-15.35ZM15.2-42.05Q14.2-42.05 13.03-39.08 11.85-36.1 10.85-31 9.85-25.9 9.35-19.85L9.35-19.85Q12.65-25.9 14.63-30.53 16.6-35.15 16.6-38.75L16.6-38.75Q16.6-40.35 16.23-41.2 15.85-42.05 15.2-42.05L15.2-42.05ZM12.6-5.05Q14.15-5.05 15.35-6.35 16.55-7.65 16.95-10.1L16.95-10.1Q15.4-11.15 14.58-12.85 13.75-14.55 13.75-16.45L13.75-16.45Q13.75-17.15 13.95-18.35L13.95-18.35 13.8-18.35Q11.75-18.35 10.38-16.32 9-14.3 9-10.9L9-10.9Q9-8.05 10.08-6.55 11.15-5.05 12.6-5.05L12.6-5.05ZM48.35-11.15Q49-11.15 49.37-10.55 49.75-9.95 49.75-8.9L49.75-8.9Q49.75-6.9 48.8-5.8L48.8-5.8Q46.95-3.55 43.57-1.65 40.2 0.25 36.35 0.25L36.35 0.25Q31.1 0.25 28.2-2.6 25.3-5.45 25.3-10.4L25.3-10.4Q25.3-13.85 26.75-16.82 28.2-19.8 30.77-21.55 33.35-23.3 36.6-23.3L36.6-23.3Q39.5-23.3 41.25-21.58 43-19.85 43-16.9L43-16.9Q43-13.45 40.52-10.98 38.05-8.5 32.15-7.05L32.15-7.05Q33.4-4.75 36.9-4.75L36.9-4.75Q39.15-4.75 42.02-6.33 44.9-7.9 47-10.45L47-10.45Q47.6-11.15 48.35-11.15L48.35-11.15ZM35.75-18.4Q33.9-18.4 32.62-16.25 31.35-14.1 31.35-11.05L31.35-11.05 31.35-10.95Q34.3-11.65 36-13.05 37.7-14.45 37.7-16.3L37.7-16.3Q37.7-17.25 37.17-17.82 36.65-18.4 35.75-18.4L35.75-18.4ZM62.49 0.25Q60.59 0.25 59.82-1.75 59.04-3.75 59.04-8.15L59.04-8.15Q59.04-14.65 60.89-20.5L60.89-20.5Q61.34-21.95 62.37-22.63 63.39-23.3 65.24-23.3L65.24-23.3Q66.24-23.3 66.64-23.05 67.04-22.8 67.04-22.1L67.04-22.1Q67.04-21.3 66.29-18.5L66.29-18.5Q65.79-16.5 65.49-15.03 65.19-13.55 64.99-11.35L64.99-11.35Q66.34-15.25 68.22-17.95 70.09-20.65 72.07-21.98 74.04-23.3 75.79-23.3L75.79-23.3Q77.54-23.3 78.27-22.5 78.99-21.7 78.99-20.05L78.99-20.05Q78.99-18.45 78.04-14.25L78.04-14.25Q77.64-12.45 77.49-11.55L77.49-11.55Q79.99-17.7 83.04-20.5 86.09-23.3 88.74-23.3L88.74-23.3Q91.99-23.3 91.99-20.05L91.99-20.05Q91.99-18.1 90.89-13L90.89-13Q89.94-8.65 89.94-7.25L89.94-7.25Q89.94-5.25 91.39-5.25L91.39-5.25Q92.39-5.25 93.77-6.48 95.14-7.7 97.44-10.45L97.44-10.45Q98.04-11.15 98.79-11.15L98.79-11.15Q99.44-11.15 99.82-10.55 100.19-9.95 100.19-8.9L100.19-8.9Q100.19-6.9 99.24-5.8L99.24-5.8Q97.09-3.15 94.62-1.45 92.14 0.25 88.99 0.25L88.99 0.25Q86.44 0.25 85.14-1.23 83.84-2.7 83.84-5.5L83.84-5.5Q83.84-6.9 84.54-10.5L84.54-10.5Q85.19-13.65 85.19-14.85L85.19-14.85Q85.19-15.65 84.64-15.65L84.64-15.65Q83.99-15.65 82.79-13.98 81.59-12.3 80.39-9.55 79.19-6.8 78.44-3.75L78.44-3.75Q77.89-1.35 77.17-0.55 76.44 0.25 74.84 0.25L74.84 0.25Q73.19 0.25 72.37-1.33 71.54-2.9 71.54-5.15L71.54-5.15Q71.54-7.05 72.04-10.65L72.04-10.65Q72.44-13.85 72.44-14.85L72.44-14.85Q72.44-15.65 71.89-15.65L71.89-15.65Q71.14-15.65 69.99-13.85 68.84-12.05 67.77-9.25 66.69-6.45 66.04-3.75L66.04-3.75Q65.49-1.4 64.77-0.58 64.04 0.25 62.49 0.25L62.49 0.25ZM121.64-15.35Q122.29-15.35 122.64-14.7 122.99-14.05 122.99-13.05L122.99-13.05Q122.99-10.65 121.54-10.2L121.54-10.2Q118.54-9.15 114.94-9L114.94-9Q113.99-4.8 111.19-2.27 108.39 0.25 104.84 0.25L104.84 0.25Q101.84 0.25 99.72-1.2 97.59-2.65 96.49-5.05 95.39-7.45 95.39-10.25L95.39-10.25Q95.39-14.05 96.84-17.03 98.29-20 100.84-21.68 103.39-23.35 106.49-23.35L106.49-23.35Q110.29-23.35 112.62-20.73 114.94-18.1 115.34-14.25L115.34-14.25Q117.69-14.4 120.94-15.25L120.94-15.25Q121.34-15.35 121.64-15.35L121.64-15.35ZM105.24-5.05Q106.84-5.05 108.02-6.35 109.19-7.65 109.59-10.1L109.59-10.1Q108.04-11.15 107.22-12.85 106.39-14.55 106.39-16.45L106.39-16.45Q106.39-17.25 106.54-18.05L106.54-18.05 106.29-18.05Q104.29-18.05 102.97-16.13 101.64-14.2 101.64-10.7L101.64-10.7Q101.64-7.95 102.72-6.5 103.79-5.05 105.24-5.05L105.24-5.05ZM122.24 0.25Q120.34 0.25 119.56-1.75 118.79-3.75 118.79-8.15L118.79-8.15Q118.79-14.65 120.64-20.5L120.64-20.5Q121.09-21.95 122.11-22.63 123.14-23.3 124.99-23.3L124.99-23.3Q125.99-23.3 126.39-23.05 126.79-22.8 126.79-22.1L126.79-22.1Q126.79-21.3 126.04-18.5L126.04-18.5Q125.54-16.5 125.24-15 124.94-13.5 124.74-11.3L124.74-11.3Q126.39-15.6 128.44-18.3 130.49-21 132.46-22.15 134.44-23.3 136.09-23.3L136.09-23.3Q139.34-23.3 139.34-20.05L139.34-20.05Q139.34-19.4 138.89-16.9L138.89-16.9Q138.49-14.9 138.49-14.4L138.49-14.4Q138.49-12.65 139.74-12.65L139.74-12.65Q141.14-12.65 143.34-14.85L143.34-14.85Q143.99-15.5 144.69-15.5L144.69-15.5Q145.34-15.5 145.71-14.93 146.09-14.35 146.09-13.4L146.09-13.4Q146.09-11.55 145.09-10.5L145.09-10.5Q143.69-9.05 141.81-8.03 139.94-7 137.84-7L137.84-7Q135.19-7 133.81-8.35 132.44-9.7 132.44-12L132.44-12Q132.44-12.75 132.59-13.5L132.59-13.5Q132.69-14.5 132.69-14.85L132.69-14.85Q132.69-15.65 132.14-15.65L132.14-15.65Q131.39-15.65 130.16-13.98 128.94-12.3 127.74-9.55 126.54-6.8 125.79-3.75L125.79-3.75Q125.24-1.4 124.51-0.58 123.79 0.25 122.24 0.25L122.24 0.25ZM163.74-11.15Q164.39-11.15 164.76-10.55 165.14-9.95 165.14-8.9L165.14-8.9Q165.14-6.9 164.19-5.8L164.19-5.8Q162.34-3.55 158.96-1.65 155.59 0.25 151.74 0.25L151.74 0.25Q146.49 0.25 143.59-2.6 140.69-5.45 140.69-10.4L140.69-10.4Q140.69-13.85 142.14-16.82 143.59-19.8 146.16-21.55 148.74-23.3 151.99-23.3L151.99-23.3Q154.89-23.3 156.64-21.58 158.39-19.85 158.39-16.9L158.39-16.9Q158.39-13.45 155.91-10.98 153.44-8.5 147.54-7.05L147.54-7.05Q148.79-4.75 152.29-4.75L152.29-4.75Q154.54-4.75 157.41-6.33 160.29-7.9 162.39-10.45L162.39-10.45Q162.99-11.15 163.74-11.15L163.74-11.15ZM151.14-18.4Q149.29-18.4 148.01-16.25 146.74-14.1 146.74-11.05L146.74-11.05 146.74-10.95Q149.69-11.65 151.39-13.05 153.09-14.45 153.09-16.3L153.09-16.3Q153.09-17.25 152.56-17.82 152.04-18.4 151.14-18.4L151.14-18.4ZM183.63 1.35Q181.03 1.35 179.66 0.15 178.28-1.05 178.28-2.55L178.28-2.55Q178.28-3.85 179.23-4.8 180.18-5.75 182.03-5.75L182.03-5.75Q182.68-5.75 183.56-5.63 184.43-5.5 184.88-5.45L184.88-5.45Q184.83-6.75 184.31-7.9 183.78-9.05 182.98-10.13 182.18-11.2 181.48-12L181.48-12Q179.93-9.05 178.41-7.1 176.88-5.15 175.08-3.4L175.08-3.4Q174.18-2.5 173.18-2.5L173.18-2.5Q172.38-2.5 171.88-3.08 171.38-3.65 171.38-4.5L171.38-4.5Q171.38-5.5 172.08-6.35L172.08-6.35 172.73-7.15Q175.48-10.55 176.88-12.75L176.88-12.75Q177.73-14.2 178.88-16.63 180.03-19.05 181.13-21.65L181.13-21.65Q182.08-23.85 185.08-23.85L185.08-23.85Q186.48-23.85 187.03-23.6 187.58-23.35 187.58-22.8L187.58-22.8Q187.58-22.5 187.38-21.85 187.18-21.2 186.83-20.55L186.83-20.55Q185.93-18.75 185.93-17.5L185.93-17.5Q185.93-16.75 186.46-15.85 186.98-14.95 188.08-13.6L188.08-13.6Q189.68-11.5 190.51-10.03 191.33-8.55 191.33-6.8L191.33-6.8Q191.33-6.3 191.23-5.4L191.23-5.4Q193.68-6.35 196.98-10.45L196.98-10.45Q197.58-11.15 198.33-11.15L198.33-11.15Q198.98-11.15 199.36-10.55 199.73-9.95 199.73-8.9L199.73-8.9Q199.73-7 198.78-5.8L198.78-5.8Q196.28-2.7 194.01-1.58 191.73-0.45 188.38-0.35L188.38-0.35Q186.38 1.35 183.63 1.35L183.63 1.35ZM221.18-15.35Q221.83-15.35 222.18-14.7 222.53-14.05 222.53-13.05L222.53-13.05Q222.53-10.65 221.08-10.2L221.08-10.2Q218.08-9.15 214.48-9L214.48-9Q213.53-4.8 210.73-2.27 207.93 0.25 204.38 0.25L204.38 0.25Q201.38 0.25 199.25-1.2 197.13-2.65 196.03-5.05 194.93-7.45 194.93-10.25L194.93-10.25Q194.93-14.05 196.38-17.03 197.83-20 200.38-21.68 202.93-23.35 206.03-23.35L206.03-23.35Q209.83-23.35 212.15-20.73 214.48-18.1 214.88-14.25L214.88-14.25Q217.23-14.4 220.48-15.25L220.48-15.25Q220.88-15.35 221.18-15.35L221.18-15.35ZM204.78-5.05Q206.38-5.05 207.55-6.35 208.73-7.65 209.13-10.1L209.13-10.1Q207.58-11.15 206.75-12.85 205.93-14.55 205.93-16.45L205.93-16.45Q205.93-17.25 206.08-18.05L206.08-18.05 205.83-18.05Q203.83-18.05 202.5-16.13 201.18-14.2 201.18-10.7L201.18-10.7Q201.18-7.95 202.25-6.5 203.33-5.05 204.78-5.05L204.78-5.05ZM227.78 0.25Q222.88 0.25 220.15-2.53 217.43-5.3 217.43-9.85L217.43-9.85Q217.43-13.9 219.03-16.95 220.63-20 223.18-21.65 225.73-23.3 228.53-23.3L228.53-23.3Q231.28-23.3 232.8-21.68 234.33-20.05 234.33-17.5L234.33-17.5Q234.33-15.4 233.4-13.95 232.48-12.5 230.98-12.5L230.98-12.5Q230.03-12.5 229.45-12.95 228.88-13.4 228.88-14.2L228.88-14.2Q228.88-14.55 228.98-15 229.08-15.45 229.13-15.65L229.13-15.65Q229.38-16.4 229.38-17.05L229.38-17.05Q229.38-17.7 229.05-18.05 228.73-18.4 228.13-18.4L228.13-18.4Q226.98-18.4 225.98-17.38 224.98-16.35 224.38-14.6 223.78-12.85 223.78-10.75L223.78-10.75Q223.78-4.95 228.83-4.95L228.83-4.95Q230.88-4.95 233.25-6.33 235.63-7.7 237.93-10.45L237.93-10.45Q238.53-11.15 239.28-11.15L239.28-11.15Q239.93-11.15 240.3-10.55 240.68-9.95 240.68-8.9L240.68-8.9Q240.68-7 239.73-5.8L239.73-5.8Q237.38-2.9 234.1-1.33 230.83 0.25 227.78 0.25L227.78 0.25ZM243.17-26.6Q241.07-26.6 240.02-27.58 238.97-28.55 238.97-30.3L238.97-30.3Q238.97-32.05 240.35-33.23 241.72-34.4 243.77-34.4L243.77-34.4Q245.62-34.4 246.77-33.5 247.92-32.6 247.92-30.95L247.92-30.95Q247.92-28.95 246.62-27.78 245.32-26.6 243.17-26.6L243.17-26.6ZM242.77 0.25Q239.52 0.25 238.05-2.05 236.57-4.35 236.57-8.15L236.57-8.15Q236.57-10.4 237.15-13.93 237.72-17.45 238.62-20.5L238.62-20.5Q239.07-22.1 239.82-22.7 240.57-23.3 242.22-23.3L242.22-23.3Q244.77-23.3 244.77-21.6L244.77-21.6Q244.77-20.35 243.82-15.8L243.82-15.8Q242.62-10.3 242.62-8.35L242.62-8.35Q242.62-6.85 243.02-6.05 243.42-5.25 244.37-5.25L244.37-5.25Q245.27-5.25 246.62-6.5 247.97-7.75 250.22-10.45L250.22-10.45Q250.82-11.15 251.57-11.15L251.57-11.15Q252.22-11.15 252.6-10.55 252.97-9.95 252.97-8.9L252.97-8.9Q252.97-6.9 252.02-5.8L252.02-5.8Q247.07 0.25 242.77 0.25L242.77 0.25ZM255.07 0.25Q251.97 0.25 250.12-2 248.27-4.25 248.27-7.9L248.27-7.9Q248.27-11.9 250.12-15.48 251.97-19.05 255.05-21.23 258.12-23.4 261.57-23.4L261.57-23.4Q262.67-23.4 263.05-22.98 263.42-22.55 263.67-21.45L263.67-21.45Q264.72-21.65 265.87-21.65L265.87-21.65Q268.32-21.65 268.32-19.9L268.32-19.9Q268.32-18.85 267.57-14.9L267.57-14.9Q266.42-9.15 266.42-6.9L266.42-6.9Q266.42-6.15 266.8-5.7 267.17-5.25 267.77-5.25L267.77-5.25Q268.72-5.25 270.07-6.48 271.42-7.7 273.72-10.45L273.72-10.45Q274.32-11.15 275.07-11.15L275.07-11.15Q275.72-11.15 276.1-10.55 276.47-9.95 276.47-8.9L276.47-8.9Q276.47-6.9 275.52-5.8L275.52-5.8Q273.47-3.25 271.17-1.5 268.87 0.25 266.72 0.25L266.72 0.25Q265.07 0.25 263.7-0.88 262.32-2 261.62-3.95L261.62-3.95Q259.02 0.25 255.07 0.25L255.07 0.25ZM256.87-4.8Q257.97-4.8 258.97-6.1 259.97-7.4 260.42-9.55L260.42-9.55 262.27-18.75Q260.17-18.7 258.4-17.18 256.62-15.65 255.57-13.15 254.52-10.65 254.52-7.85L254.52-7.85Q254.52-6.3 255.15-5.55 255.77-4.8 256.87-4.8L256.87-4.8ZM291.37-11.15Q292.02-11.15 292.39-10.55 292.77-9.95 292.77-8.9L292.77-8.9Q292.77-6.9 291.82-5.8L291.82-5.8Q289.67-3.15 287.14-1.45 284.62 0.25 281.42 0.25L281.42 0.25Q277.02 0.25 274.89-3.75 272.77-7.75 272.77-14.1L272.77-14.1Q272.77-20.2 274.34-28 275.92-35.8 278.99-41.4 282.07-47 286.32-47L286.32-47Q288.72-47 290.09-44.78 291.47-42.55 291.47-38.4L291.47-38.4Q291.47-32.45 288.17-24.6 284.87-16.75 279.22-9.05L279.22-9.05Q279.57-7 280.37-6.13 281.17-5.25 282.47-5.25L282.47-5.25Q284.52-5.25 286.07-6.43 287.62-7.6 290.02-10.45L290.02-10.45Q290.62-11.15 291.37-11.15L291.37-11.15ZM285.22-42.05Q284.07-42.05 282.62-37.9 281.17-33.75 280.07-27.6 278.97-21.45 278.87-15.8L278.87-15.8Q282.42-21.65 284.52-27.53 286.62-33.4 286.62-38.25L286.62-38.25Q286.62-42.05 285.22-42.05L285.22-42.05ZM324.26-11.15Q324.91-11.15 325.29-10.55 325.66-9.95 325.66-8.9L325.66-8.9Q325.66-6.9 324.71-5.8L324.71-5.8Q322.56-3.15 320.01-1.45 317.46 0.25 314.16 0.25L314.16 0.25Q303.96 0.25 303.96-14.1L303.96-14.1Q303.96-16.3 304.11-18.55L304.11-18.55 302.16-18.55Q300.66-18.55 300.14-19.1 299.61-19.65 299.61-20.85L299.61-20.85Q299.61-23.65 301.86-23.65L301.86-23.65 304.71-23.65Q305.56-29.15 307.31-33.7 309.06-38.25 311.54-40.95 314.01-43.65 316.86-43.65L316.86-43.65Q318.96-43.65 320.16-41.8 321.36-39.95 321.36-37.15L321.36-37.15Q321.36-29.4 314.86-23.65L314.86-23.65 320.46-23.65Q321.26-23.65 321.61-23.3 321.96-22.95 321.96-22L321.96-22Q321.96-18.55 316.31-18.55L316.31-18.55 310.21-18.55Q310.11-16.05 310.11-14.65L310.11-14.65Q310.11-9.45 311.34-7.35 312.56-5.25 315.21-5.25L315.21-5.25Q317.36-5.25 319.01-6.55 320.66-7.85 322.91-10.45L322.91-10.45Q323.51-11.15 324.26-11.15L324.26-11.15ZM315.51-38.85Q314.76-38.85 313.84-36.98 312.91-35.1 312.09-31.78 311.26-28.45 310.71-24.4L310.71-24.4Q313.66-26.95 315.14-30.13 316.61-33.3 316.61-35.9L316.61-35.9Q316.61-38.85 315.51-38.85L315.51-38.85ZM349.36-11.15Q350.01-11.15 350.39-10.55 350.76-9.95 350.76-8.9L350.76-8.9Q350.76-6.9 349.81-5.8L349.81-5.8Q347.51-3.15 345.09-1.45 342.66 0.25 339.56 0.25L339.56 0.25Q337.01 0.25 335.71-1.23 334.41-2.7 334.41-5.5L334.41-5.5Q334.41-6.9 335.11-10.5L335.11-10.5Q335.76-13.65 335.76-14.85L335.76-14.85Q335.76-15.65 335.21-15.65L335.21-15.65Q334.56-15.65 333.36-13.98 332.16-12.3 330.96-9.55 329.76-6.8 329.01-3.75L329.01-3.75Q328.06 0.25 324.31 0.25L324.31 0.25Q322.81 0.25 322.34-0.83 321.86-1.9 321.86-4.7L321.86-4.7Q321.86-6.3 321.91-7.25L321.91-7.25 321.96-11.25Q321.96-18.95 323.54-27.3 325.11-35.65 328.19-41.33 331.26-47 335.56-47L335.56-47Q337.86-47 339.29-45.03 340.71-43.05 340.71-39.9L340.71-39.9Q340.71-34.85 337.76-29.43 334.81-24 328.16-16.75L328.16-16.75Q328.01-14.15 328.01-11.4L328.01-11.4Q329.66-15.65 331.69-18.32 333.71-21 335.69-22.15 337.66-23.3 339.31-23.3L339.31-23.3Q342.56-23.3 342.56-20.05L342.56-20.05Q342.56-18.1 341.46-13L341.46-13Q340.51-8.65 340.51-7.25L340.51-7.25Q340.51-5.25 341.96-5.25L341.96-5.25Q342.96-5.25 344.34-6.48 345.71-7.7 348.01-10.45L348.01-10.45Q348.61-11.15 349.36-11.15L349.36-11.15ZM334.51-42.05Q333.61-42.05 332.51-39.48 331.41-36.9 330.39-32.52 329.36-28.15 328.71-23L328.71-23Q331.81-26.65 333.84-30.95 335.86-35.25 335.86-38.75L335.86-38.75Q335.86-40.35 335.51-41.2 335.16-42.05 334.51-42.05L334.51-42.05ZM352.86 0.25Q349.76 0.25 347.91-2 346.06-4.25 346.06-7.9L346.06-7.9Q346.06-11.9 347.91-15.48 349.76-19.05 352.83-21.23 355.91-23.4 359.36-23.4L359.36-23.4Q360.46-23.4 360.83-22.98 361.21-22.55 361.46-21.45L361.46-21.45Q362.51-21.65 363.66-21.65L363.66-21.65Q366.11-21.65 366.11-19.9L366.11-19.9Q366.11-18.85 365.36-14.9L365.36-14.9Q364.21-9.15 364.21-6.9L364.21-6.9Q364.21-6.15 364.58-5.7 364.96-5.25 365.56-5.25L365.56-5.25Q366.51-5.25 367.86-6.48 369.21-7.7 371.51-10.45L371.51-10.45Q372.11-11.15 372.86-11.15L372.86-11.15Q373.51-11.15 373.88-10.55 374.26-9.95 374.26-8.9L374.26-8.9Q374.26-6.9 373.31-5.8L373.31-5.8Q371.26-3.25 368.96-1.5 366.66 0.25 364.51 0.25L364.51 0.25Q362.86 0.25 361.48-0.88 360.11-2 359.41-3.95L359.41-3.95Q356.81 0.25 352.86 0.25L352.86 0.25ZM354.66-4.8Q355.76-4.8 356.76-6.1 357.76-7.4 358.21-9.55L358.21-9.55 360.06-18.75Q357.96-18.7 356.18-17.18 354.41-15.65 353.36-13.15 352.31-10.65 352.31-7.85L352.31-7.85Q352.31-6.3 352.93-5.55 353.56-4.8 354.66-4.8L354.66-4.8ZM373.76 0.25Q371.86 0.25 371.08-1.75 370.31-3.75 370.31-8.15L370.31-8.15Q370.31-14.65 372.16-20.5L372.16-20.5Q372.61-21.95 373.63-22.63 374.66-23.3 376.51-23.3L376.51-23.3Q377.51-23.3 377.91-23.05 378.31-22.8 378.31-22.1L378.31-22.1Q378.31-21.3 377.56-18.5L377.56-18.5Q377.06-16.5 376.76-15 376.46-13.5 376.26-11.3L376.26-11.3Q377.91-15.6 379.96-18.3 382.01-21 383.98-22.15 385.96-23.3 387.61-23.3L387.61-23.3Q390.86-23.3 390.86-20.05L390.86-20.05Q390.86-18.1 389.76-13L389.76-13Q388.81-8.65 388.81-7.25L388.81-7.25Q388.81-5.25 390.26-5.25L390.26-5.25Q391.26-5.25 392.63-6.48 394.01-7.7 396.31-10.45L396.31-10.45Q396.91-11.15 397.66-11.15L397.66-11.15Q398.31-11.15 398.68-10.55 399.06-9.95 399.06-8.9L399.06-8.9Q399.06-6.9 398.11-5.8L398.11-5.8Q395.96-3.15 393.48-1.45 391.01 0.25 387.86 0.25L387.86 0.25Q385.31 0.25 384.01-1.23 382.71-2.7 382.71-5.5L382.71-5.5Q382.71-6.9 383.41-10.5L383.41-10.5Q384.06-13.65 384.06-14.85L384.06-14.85Q384.06-15.65 383.51-15.65L383.51-15.65Q382.86-15.65 381.68-13.98 380.51-12.3 379.28-9.55 378.06-6.8 377.31-3.75L377.31-3.75Q376.76-1.4 376.03-0.58 375.31 0.25 373.76 0.25L373.76 0.25ZM411.8 0.25Q409.9 0.25 409.13-1.75 408.35-3.75 408.35-8.15L408.35-8.15Q408.35-14.65 410.2-20.5L410.2-20.5Q410.65-21.95 411.68-22.63 412.7-23.3 414.55-23.3L414.55-23.3Q415.55-23.3 415.95-23.05 416.35-22.8 416.35-22.1L416.35-22.1Q416.35-21.3 415.6-18.5L415.6-18.5Q415.1-16.5 414.8-15.03 414.5-13.55 414.3-11.35L414.3-11.35Q415.65-15.25 417.53-17.95 419.4-20.65 421.38-21.98 423.35-23.3 425.1-23.3L425.1-23.3Q426.85-23.3 427.58-22.5 428.3-21.7 428.3-20.05L428.3-20.05Q428.3-18.45 427.35-14.25L427.35-14.25Q426.95-12.45 426.8-11.55L426.8-11.55Q429.3-17.7 432.35-20.5 435.4-23.3 438.05-23.3L438.05-23.3Q441.3-23.3 441.3-20.05L441.3-20.05Q441.3-18.1 440.2-13L440.2-13Q439.25-8.65 439.25-7.25L439.25-7.25Q439.25-5.25 440.7-5.25L440.7-5.25Q441.7-5.25 443.08-6.48 444.45-7.7 446.75-10.45L446.75-10.45Q447.35-11.15 448.1-11.15L448.1-11.15Q448.75-11.15 449.13-10.55 449.5-9.95 449.5-8.9L449.5-8.9Q449.5-6.9 448.55-5.8L448.55-5.8Q446.4-3.15 443.93-1.45 441.45 0.25 438.3 0.25L438.3 0.25Q435.75 0.25 434.45-1.23 433.15-2.7 433.15-5.5L433.15-5.5Q433.15-6.9 433.85-10.5L433.85-10.5Q434.5-13.65 434.5-14.85L434.5-14.85Q434.5-15.65 433.95-15.65L433.95-15.65Q433.3-15.65 432.1-13.98 430.9-12.3 429.7-9.55 428.5-6.8 427.75-3.75L427.75-3.75Q427.2-1.35 426.48-0.55 425.75 0.25 424.15 0.25L424.15 0.25Q422.5 0.25 421.68-1.33 420.85-2.9 420.85-5.15L420.85-5.15Q420.85-7.05 421.35-10.65L421.35-10.65Q421.75-13.85 421.75-14.85L421.75-14.85Q421.75-15.65 421.2-15.65L421.2-15.65Q420.45-15.65 419.3-13.85 418.15-12.05 417.08-9.25 416-6.45 415.35-3.75L415.35-3.75Q414.8-1.4 414.08-0.58 413.35 0.25 411.8 0.25L411.8 0.25ZM467.75-11.15Q468.4-11.15 468.77-10.55 469.15-9.95 469.15-8.9L469.15-8.9Q469.15-6.9 468.2-5.8L468.2-5.8Q466.35-3.55 462.97-1.65 459.6 0.25 455.75 0.25L455.75 0.25Q450.5 0.25 447.6-2.6 444.7-5.45 444.7-10.4L444.7-10.4Q444.7-13.85 446.15-16.82 447.6-19.8 450.17-21.55 452.75-23.3 456-23.3L456-23.3Q458.9-23.3 460.65-21.58 462.4-19.85 462.4-16.9L462.4-16.9Q462.4-13.45 459.92-10.98 457.45-8.5 451.55-7.05L451.55-7.05Q452.8-4.75 456.3-4.75L456.3-4.75Q458.55-4.75 461.42-6.33 464.3-7.9 466.4-10.45L466.4-10.45Q467-11.15 467.75-11.15L467.75-11.15ZM455.15-18.4Q453.3-18.4 452.02-16.25 450.75-14.1 450.75-11.05L450.75-11.05 450.75-10.95Q453.7-11.65 455.4-13.05 457.1-14.45 457.1-16.3L457.1-16.3Q457.1-17.25 456.57-17.82 456.05-18.4 455.15-18.4L455.15-18.4ZM493.25-11.15Q493.9-11.15 494.27-10.55 494.65-9.95 494.65-8.9L494.65-8.9Q494.65-6.9 493.7-5.8L493.7-5.8Q491.65-3.3 489.2-1.53 486.75 0.25 484.35 0.25L484.35 0.25Q480.55 0.25 478.55-4.2L478.55-4.2Q476.45-1.55 474.87-0.65 473.3 0.25 471.2 0.25L471.2 0.25Q468.15 0.25 466.17-2.02 464.2-4.3 464.2-7.95L464.2-7.95Q464.2-11.95 465.9-15.38 467.6-18.8 470.57-20.98 473.55-23.15 477.25-23.55L477.25-23.55Q478.2-33.25 480.87-40.13 483.55-47 487.9-47L487.9-47Q490.05-47 491.47-45.05 492.9-43.1 492.9-39.15L492.9-39.15Q492.9-33.55 490.15-26.05 487.4-18.55 482.8-10.65L482.8-10.65Q483-7.75 483.67-6.5 484.35-5.25 485.4-5.25L485.4-5.25Q486.75-5.25 488.15-6.45 489.55-7.65 491.9-10.45L491.9-10.45Q492.5-11.15 493.25-11.15L493.25-11.15ZM487.35-42.1Q486.4-42.1 485.45-38.73 484.5-35.35 483.82-29.9 483.15-24.45 482.85-18.5L482.85-18.5Q488.45-30.7 488.45-38.1L488.45-38.1Q488.45-40 488.12-41.05 487.8-42.1 487.35-42.1L487.35-42.1ZM472.95-4.8Q473.9-4.8 474.85-5.58 475.8-6.35 477.25-8.45L477.25-8.45Q476.75-11.15 476.75-14.5L476.75-14.5Q476.75-15.7 476.85-18.4L476.85-18.4Q474.1-17.55 472.27-14.73 470.45-11.9 470.45-8.45L470.45-8.45Q470.45-4.8 472.95-4.8L472.95-4.8ZM497.14-26.6Q495.04-26.6 493.99-27.58 492.94-28.55 492.94-30.3L492.94-30.3Q492.94-32.05 494.32-33.23 495.69-34.4 497.74-34.4L497.74-34.4Q499.59-34.4 500.74-33.5 501.89-32.6 501.89-30.95L501.89-30.95Q501.89-28.95 500.59-27.78 499.29-26.6 497.14-26.6L497.14-26.6ZM496.74 0.25Q493.49 0.25 492.02-2.05 490.54-4.35 490.54-8.15L490.54-8.15Q490.54-10.4 491.12-13.93 491.69-17.45 492.59-20.5L492.59-20.5Q493.04-22.1 493.79-22.7 494.54-23.3 496.19-23.3L496.19-23.3Q498.74-23.3 498.74-21.6L498.74-21.6Q498.74-20.35 497.79-15.8L497.79-15.8Q496.59-10.3 496.59-8.35L496.59-8.35Q496.59-6.85 496.99-6.05 497.39-5.25 498.34-5.25L498.34-5.25Q499.24-5.25 500.59-6.5 501.94-7.75 504.19-10.45L504.19-10.45Q504.79-11.15 505.54-11.15L505.54-11.15Q506.19-11.15 506.57-10.55 506.94-9.95 506.94-8.9L506.94-8.9Q506.94-6.9 505.99-5.8L505.99-5.8Q501.04 0.25 496.74 0.25L496.74 0.25ZM509.04 0.25Q505.94 0.25 504.09-2 502.24-4.25 502.24-7.9L502.24-7.9Q502.24-11.9 504.09-15.48 505.94-19.05 509.02-21.23 512.09-23.4 515.54-23.4L515.54-23.4Q516.64-23.4 517.02-22.98 517.39-22.55 517.64-21.45L517.64-21.45Q518.69-21.65 519.84-21.65L519.84-21.65Q522.29-21.65 522.29-19.9L522.29-19.9Q522.29-18.85 521.54-14.9L521.54-14.9Q520.39-9.15 520.39-6.9L520.39-6.9Q520.39-6.15 520.77-5.7 521.14-5.25 521.74-5.25L521.74-5.25Q522.69-5.25 524.04-6.48 525.39-7.7 527.69-10.45L527.69-10.45Q528.29-11.15 529.04-11.15L529.04-11.15Q529.69-11.15 530.07-10.55 530.44-9.95 530.44-8.9L530.44-8.9Q530.44-6.9 529.49-5.8L529.49-5.8Q527.44-3.25 525.14-1.5 522.84 0.25 520.69 0.25L520.69 0.25Q519.04 0.25 517.67-0.88 516.29-2 515.59-3.95L515.59-3.95Q512.99 0.25 509.04 0.25L509.04 0.25ZM510.84-4.8Q511.94-4.8 512.94-6.1 513.94-7.4 514.39-9.55L514.39-9.55 516.24-18.75Q514.14-18.7 512.37-17.18 510.59-15.65 509.54-13.15 508.49-10.65 508.49-7.85L508.49-7.85Q508.49-6.3 509.12-5.55 509.74-4.8 510.84-4.8L510.84-4.8Z" opacity="1" transform="matrix(1,0,0,1,0,0)" fill="#010c80" class="slogan-text-1" data-fill-palette-color="secondary" id="text-1"></path></svg></g></svg></g></svg></g></svg></g><g></g></svg></g></svg></g></svg></g><g mask="url(#60f02816-317e-42ee-ac7c-297b1421b83a)"><g transform="matrix(2.5144633268020673, 0, 0, 2.5144633268020673, 74.70668603201041, 1.0000000000000142)"><svg xmlns="http://www.w3.org/2000/svg" xmlns:xlink="http://www.w3.org/1999/xlink" version="1.1" x="0" y="0" viewBox="1.000000238418579 1.1841613054275513 97.87640380859375 97.51583862304688" enable-background="new 0 0 100 100" xml:space="preserve" height="97.51583862304688" width="97.87640380859375" class="icon-none" data-fill-palette-color="accent" id="none"><path d="M85.9 3.1l-2.2-0.9-2.2-0.9c-0.8-0.3-1.8 0-2.2 0.7l-2.6 4.1c-1.9-0.3-3.8-0.3-5.7 0.1l-2.6-4.1c-0.5-0.8-1.4-1.1-2.3-0.7l-2.2 0.9-2.2 0.9c-0.8 0.3-1.3 1.2-1.1 2.1l1.1 4.8c-1.5 1.2-2.8 2.5-3.9 4l-4.7-1.1c-0.9-0.2-1.8 0.3-2.1 1.1l-0.9 2.2-0.9 2.2c-0.3 0.8 0 1.8 0.7 2.2l4.2 2.6c-0.2 1.8-0.2 3.7 0.1 5.6l-4.1 2.6c-0.8 0.5-1.1 1.4-0.7 2.3l0.9 2.2 0.9 2.2c0.3 0.8 1.2 1.3 2.1 1.1l4.8-1.1c1.2 1.5 2.5 2.8 4 3.9l-1 4.7c-0.2 0.9 0.3 1.8 1.1 2.1l2.2 0.9 2.2 0.9c0.8 0.3 1.8 0 2.2-0.7l2.6-4.2c1.8 0.2 3.6 0.2 5.5-0.1l2.6 4.1c0.5 0.8 1.4 1.1 2.3 0.7l2.2-0.9 2.2-0.9c0.8-0.3 1.3-1.2 1.1-2.1l-1.1-4.7c1.5-1.2 2.8-2.5 3.9-4l4.7 1c0.9 0.2 1.8-0.3 2.1-1.1l0.9-2.2 0.9-2.2c0.3-0.8 0-1.8-0.7-2.2l-4.1-2.6c0.3-1.8 0.2-3.7 0-5.6l4.1-2.6c0.8-0.5 1.1-1.4 0.7-2.3L97.7 16l-0.9-2.2c-0.4-0.8-1.3-1.2-2.1-1l-4.7 1.1c-1.2-1.5-2.5-2.8-4-3.9l1-4.7C87.2 4.3 86.7 3.4 85.9 3.1zM77.9 34.7c-4.8 2-10.4-0.2-12.5-5-2-4.8 0.2-10.4 5-12.5 4.8-2 10.4 0.2 12.5 5C85 27.1 82.7 32.7 77.9 34.7zM60.7 73.1c1.1-0.2 1.8-1.1 1.8-2.2l0-2.9 0-2.9c0-1.1-0.8-2-1.8-2.2l-5.7-1c-0.5-2.2-1.4-4.2-2.6-6.2l3.4-4.7c0.6-0.9 0.5-2.1-0.2-2.8l-2-2-2-2c-0.8-0.7-2-0.8-2.8-0.2L44 47.5c-2-1.1-4-2-6.2-2.6l-1-5.7c-0.2-1.1-1.1-1.8-2.2-1.8l-2.9 0-2.9 0c-1.1 0-2 0.8-2.2 1.8l-1 5.7c-2.2 0.5-4.3 1.4-6.3 2.7l-4.7-3.3c-0.9-0.6-2.1-0.5-2.8 0.2l-2 2-2 2c-0.7 0.7-0.9 2-0.2 2.8l3.4 4.8c-1.1 2-2 4.1-2.5 6.2l-5.7 0.9c-1.1 0.2-1.8 1.1-1.8 2.2l0 2.9 0 2.9c0 1.1 0.8 2 1.8 2.2l5.8 1c0.6 2.1 1.4 4.2 2.6 6.1L8 85.1c-0.6 0.9-0.5 2.1 0.2 2.8l2 2 2 2c0.7 0.7 2 0.9 2.8 0.2l4.8-3.4c2 1.2 4.1 2 6.2 2.5l1 5.7c0.2 1.1 1.1 1.8 2.2 1.8l2.9 0 2.9 0c1.1 0 2-0.8 2.2-1.8l1-5.8c2.1-0.5 4.1-1.4 6-2.5l4.7 3.4c0.9 0.6 2.1 0.5 2.8-0.2l2-2 2-2c0.7-0.7 0.9-2 0.2-2.8l-3.4-4.7c1.2-2 2-4 2.6-6.2L60.7 73.1zM33.4 73.4l-4.6 4.6-4.6-4.6-4.4-4.4 4.6-4.6 4.4 4.4 10.5-10.4 4.6 4.6L33.4 73.4z" fill="#010c80" data-fill-palette-color="accent"></path></svg></g></g></svg></g><defs></defs></svg><rect width="395.52" height="247.2" fill="none" stroke="none" visibility="hidden"></rect></g></svg></g></svg>